<?xml version="1.0" encoding="UTF-8"?>
<svg id="_Слой_1" data-name="Слой 1" xmlns="http://www.w3.org/2000/svg" viewBox="0 0 919 919">
  <defs>
    <style>
      .cls-1 {
        fill: #fff;
      }
    </style>
  </defs>
  <rect width="919" height="919" rx="354.01" ry="354.01"/>
  <g>
    <path class="cls-1" d="M285.54,500.38c21.16,12.44,48.01,11.65,68.4-2l18.45-12.35c24.15-16.18,55.52-16.41,79.92-.6l14.68,9.52c23.69,15.36,54.23,13.59,75.99-4.4,11.18-9.24,24.71-14.88,39.14-16.3,14.44-1.43,28.81,1.46,41.57,8.33l48.14,25.92v-80.36c0-41.08-33.3-74.38-74.38-74.38H322c-41.08,0-74.38,33.3-74.38,74.38v49.96l37.92,22.29Z"/>
    <path class="cls-1" d="M619.75,489.87c-23.16-12.47-51.22-9.7-71.5,7.06-11.99,9.92-26.54,15.63-42.08,16.53-15.53,.9-30.65-3.1-43.71-11.56l-14.68-9.52c-21.61-14.01-49.39-13.8-70.79,.53l-18.45,12.35c-11.37,7.61-24.61,11.85-38.28,12.25-13.68,.4-27.14-3.05-38.94-9.99l-33.71-19.82v116.34c0,9.6,7.78,17.38,17.38,17.38h389.44c9.6,0,17.38-7.78,17.38-17.38v-86.14l-52.07-28.04Z"/>
  </g>
  <rect class="cls-1" x="189" y="633.18" width="542" height="20.46"/>
  <rect class="cls-1" x="448.39" y="227.36" width="23.78" height="114.48"/>
  <path class="cls-1" d="M441.06,207.01c8.43-16.09,19.68-32.39,19.68-32.39,0,0,11.14,16.13,19.56,32.15,5.55-5.24,9.01-12.66,9.01-20.9,0-15.88-28.76-57.52-28.76-57.52,0,0-28.76,41.64-28.76,57.52,0,8.36,3.57,15.88,9.26,21.14Z"/>
</svg>